# xmcd
#
# Track frame offsets: 
#        150
#        16977
#        38887
#        58410
#        75212
#        92887
#        129227
#        155152
#        171225
#        190635
#        211442
#        235137
#
# Disc length: 3241 seconds
#
# Revision: 5
# Processed by: cddbd v1.5.2PL0 Copyright (c) Steve Scherf et al.
# Submitted via: ExactAudioCopyFreeDBPlugin 1.0
#
DISCID=990ca70c
DTITLE=Lucky Peterson - Move
DYEAR=1997
DGENRE=Blues
TTITLE0=You're The One For Me
TTITLE1=Don't You Even Care
TTITLE2=Let's Go Get Stoned
TTITLE3=It's Your Thing
TTITLE4=Move
TTITLE5=Tin Pan Alley
TTITLE6=I'm Back Again
TTITLE7=Play Dirty
TTITLE8=Purple Rain
TTITLE9=Move On You
TTITLE10=Pickin'
TTITLE11=What Cha Doing Out There
EXTD=YEAR: 1997
EXTT0=
EXTT1=
EXTT2=
EXTT3=
EXTT4=
EXTT5=
EXTT6=
EXTT7=
EXTT8=
EXTT9=
EXTT10=
EXTT11=
PLAYORDER=
